Coordinates
version=1
nRows=32
nColumns=22
inDegrees=yes

Units are S.I. units (second, meters, Newtons, ...)
If the header above contains a line with 'inDegrees', this indicates whether rotational values are in degrees (yes) or radians (no).

endheader
time	pelvis_tilt	pelvis_list	pelvis_rotation	pelvis_tx	pelvis_ty	pelvis_tz	hip_flexion_r	hip_adduction_r	hip_rotation_r	knee_angle_r	ankle_angle_r	subtalar_angle_r	hip_flexion_l	hip_adduction_l	hip_rotation_l	knee_angle_l	ankle_angle_l	subtalar_angle_l	lumbar_extension	lumbar_bending	lumbar_rotation
      2.83000000	      5.49734676	      4.32022245	     36.29825372	     -0.33187162	      0.94578458	     -0.52961461	     16.73999391	      1.68701433	     -9.38260469	    -56.56726592	      1.66966458	      7.61733883	     -0.79367884	     -3.77777919	     -6.45030293	    -21.54315588	     21.18875054	     -7.24555551	    -15.02921070	      3.18115911	    -12.93534466
      2.84000000	      5.61202325	      4.35523578	     36.00061978	     -0.32457354	      0.94617751	     -0.53519173	     17.53299029	      1.20403320	    -10.58850748	    -54.91451333	      2.50950767	      6.84065789	     -2.02531076	     -3.78415450	     -7.06535445	    -20.74509472	     21.41195291	     -6.97121755	    -15.19608773	      3.19823320	    -13.32312561
      2.85000000	      5.68441789	      4.38187227	     35.67713909	     -0.31713855	      0.94620724	     -0.54064954	     18.27891506	      0.77303216	    -11.69754010	    -53.05949388	      3.21382366	      6.12074921	     -3.20542852	     -3.75877974	     -7.66163849	    -19.98011285	     21.65263697	     -6.72876212	    -15.31780935	      3.18422499	    -13.68758404
      2.86000000	      5.72101239	      4.41598192	     35.33030272	     -0.30959567	      0.94586513	     -0.54597331	     18.97549578	      0.37845598	    -12.72602575	    -51.02958735	      3.76821716	      5.41452519	     -4.32206463	     -3.70068627	     -8.28497534	    -19.29768950	     21.96372044	     -6.51326512	    -15.42141233	      3.12733957	    -14.01469504
      2.87000000	      5.71826511	      4.45416416	     34.96738676	     -0.30193104	      0.94516252	     -0.55116047	     19.62794689	      0.03405173	    -13.65463331	    -48.82637253	      4.15277566	      4.79350035	     -5.37542065	     -3.60820308	     -8.90647722	    -18.68359163	     22.33142398	     -6.34353429	    -15.49811097	      3.02718943	    -14.32316116
      2.88000000	      5.69109289	      4.49588630	     34.59178465	     -0.29413974	      0.94413933	     -0.55623210	     20.21870974	     -0.25119250	    -14.48790656	    -46.45072294	      4.37992766	      4.25226024	     -6.38285345	     -3.48810534	     -9.50245135	    -18.12924998	     22.73729906	     -6.21421258	    -15.55964021	      2.89684287	    -14.59579391
      2.89000000	      5.66333343	      4.52856089	     34.22111405	     -0.28621922	      0.94283485	     -0.56118733	     20.72335761	     -0.44985837	    -15.23464070	    -43.89680889	      4.47983197	      3.90039357	     -7.33252581	     -3.38183960	    -10.10837869	    -17.68103883	     23.17584744	     -6.15087563	    -15.61822949	      2.76796637	    -14.88367050
      2.90000000	      5.61589138	      4.57357760	     33.84433100	     -0.27817422	      0.94125960	     -0.56604413	     21.15790919	     -0.59706121	    -15.87671391	    -41.20165374	      4.43785505	      3.58580333	     -8.25273655	     -3.24135139	    -10.66360117	    -17.27480242	     23.67606636	     -6.09843722	    -15.66989722	      2.60782204	    -15.13950310
      2.91000000	      5.56908881	      4.61942475	     33.47427082	     -0.26998621	      0.93944732	     -0.57078287	     21.50464698	     -0.67622801	    -16.43428047	    -38.37673206	      4.28070131	      3.37927731	     -9.12324009	     -3.10901444	    -11.20432814	    -16.97424475	     24.21903426	     -6.07695795	    -15.72190928	      2.43541834	    -15.41907937
      2.92000000	      5.53093923	      4.67119061	     33.11495951	     -0.26166375	      0.93744961	     -0.57545100	     21.75143941	     -0.70141885	    -16.92480676	    -35.44950822	      4.04876757	      3.23397957	     -9.97747931	     -2.97650605	    -11.69022540	    -16.73105321	     24.79258155	     -6.06493927	    -15.78439010	      2.26013109	    -15.67963739
      2.93000000	      5.50692862	      4.73043102	     32.77350257	     -0.25321518	      0.93529873	     -0.58007116	     21.89679778	     -0.68398877	    -17.36657554	    -32.45958964	      3.78206541	      3.14811711	    -10.81353892	     -2.85090736	    -12.12800716	    -16.56122601	     25.38447230	     -6.05790165	    -15.86090757	      2.08901305	    -15.94324684
      2.94000000	      5.49054745	      4.78540122	     32.45524644	     -0.24462184	      0.93299679	     -0.58464816	     21.96105645	     -0.62974198	    -17.78827408	    -29.45795351	      3.50807895	      3.11612294	    -11.61740937	     -2.74427808	    -12.50919304	    -16.46902563	     26.00480515	     -6.04952207	    -15.93285296	      1.92972870	    -16.21376442
      2.95000000	      5.50039006	      4.84743500	     32.16219484	     -0.23589066	      0.93060999	     -0.58918419	     21.93167573	     -0.54994267	    -18.21127755	    -26.50180187	      3.27820025	      3.11576502	    -12.41409638	     -2.66015162	    -12.82689892	    -16.45085139	     26.61831703	     -6.03115939	    -16.02937823	      1.78069720	    -16.48666496
      2.96000000	      5.52101436	      4.90093060	     31.89963353	     -0.22701732	      0.92813541	     -0.59371796	     21.84862798	     -0.45209144	    -18.65742008	    -23.66557763	      3.11841133	      3.13054452	    -13.17898944	     -2.60494408	    -13.07486309	    -16.51191895	     27.22659462	     -5.99759252	    -16.11897828	      1.65789252	    -16.76414764
      2.97000000	      5.57060946	      4.94496074	     31.66538025	     -0.21797376	      0.92562832	     -0.59820810	     21.71291153	     -0.32938890	    -19.14995272	    -21.01904844	      3.04534979	      3.14375479	    -13.93505574	     -2.59635432	    -13.27099080	    -16.64139629	     27.80434992	     -5.94319115	    -16.22221650	      1.56250159	    -17.04895254
      2.98000000	      5.64680727	      4.98290330	     31.44971156	     -0.20876819	      0.92313653	     -0.60267652	     21.54076845	     -0.18764667	    -19.65078923	    -18.62827170	      3.06957762	      3.13204366	    -14.68762380	     -2.62226451	    -13.39946743	    -16.83106915	     28.30735559	     -5.84239078	    -16.33857275	      1.49799110	    -17.32212020
      2.99000000	      5.70106568	      4.94286248	     31.27944039	     -0.19937704	      0.92055826	     -0.60714442	     21.43603903	     -0.00757761	    -20.22388672	    -16.57162728	      3.18632621	      3.09617102	    -15.32827268	     -2.74023992	    -13.48827866	    -17.12946093	     28.82539478	     -5.74970638	    -16.36559281	      1.51056908	    -17.61366432
      3.00000000	      5.80465543	      4.87368760	     31.11832798	     -0.18977145	      0.91809722	     -0.61157041	     21.29764358	      0.22422790	    -20.78159202	    -14.86008259	      3.35290316	      2.99974989	    -15.98294189	     -2.92709095	    -13.53794042	    -17.47910871	     29.23624223	     -5.60515786	    -16.41133914	      1.58412203	    -17.88362245
      3.01000000	      5.91589958	      4.74186924	     30.97907111	     -0.17994790	      0.91569420	     -0.61595204	     21.19674458	      0.50467268	    -21.31438850	    -13.54408501	      3.56357940	      2.85878758	    -16.56694409	     -3.20113686	    -13.54087617	    -17.93773382	     29.57362372	     -5.44027832	    -16.41158845	      1.72694164	    -18.12426378
      3.02000000	      6.07891269	      4.55963246	     30.82289018	     -0.16982942	      0.91348419	     -0.62028533	     21.06082237	      0.86549608	    -21.75458415	    -12.58598550	      3.72129070	      2.50696238	    -17.18714084	     -3.55144087	    -13.53880159	    -18.39920065	     29.72298343	     -5.09661915	    -16.41199934	      1.95431050	    -18.34067232
      3.03000000	      6.23384976	      4.29490097	     30.68609617	     -0.15943970	      0.91135987	     -0.62459036	     20.98259180	      1.27892516	    -22.15720878	    -12.03234070	      3.83728707	      2.11994022	    -17.70437751	     -3.99875961	    -13.51488859	    -18.99110445	     29.80300784	     -4.77446219	    -16.32789288	      2.26219311	    -18.54877774
      3.04000000	      6.41038580	      3.96390420	     30.55513592	     -0.14873260	      0.90941196	     -0.62880830	     20.91148900	      1.75991712	    -22.49182388	    -11.83847777	      3.83922729	      1.68863156	    -18.16445252	     -4.54199757	    -13.46684037	    -19.69671205	     29.76301322	     -4.45978493	    -16.20100595	      2.63477141	    -18.72749261
      3.05000000	      6.60781654	      3.58595132	     30.38225062	     -0.13762931	      0.90769780	     -0.63297257	     20.82197921	      2.31045016	    -22.67847271	    -11.94696926	      3.72638606	      0.89199656	    -18.62520617	     -5.13357806	    -13.43352887	    -20.43867603	     29.42097830	     -3.87787004	    -16.02493091	      3.06355330	    -18.88741294
      3.06000000	      6.81008391	      3.15171468	     30.20972114	     -0.12619638	      0.90619027	     -0.63702920	     20.74493843	      2.91519661	    -22.82108890	    -12.33631462	      3.42224465	      0.04537238	    -18.99438386	     -5.80275019	    -13.35874469	    -21.33569778	     28.91685529	     -3.31801962	    -15.79305294	      3.53183753	    -19.01056959
      3.07000000	      7.01881254	      2.67659524	     30.01212772	     -0.11440918	      0.90493458	     -0.64099034	     20.65811542	      3.57506490	    -22.88344197	    -12.93370980	      2.95381486	     -0.95509770	    -19.30024745	     -6.51764337	    -13.23265417	    -22.35245350	     28.17201642	     -2.66893943	    -15.50788652	      4.03159610	    -19.09934891
      3.08000000	      7.22218343	      2.17657775	     29.78946664	     -0.10227934	      0.90394813	     -0.64480817	     20.56597911	      4.27392095	    -22.87797182	    -13.69395065	      2.34357368	     -2.10175030	    -19.51825640	     -7.26404339	    -13.04506575	    -23.51382950	     27.13617791	     -1.92834274	    -15.17090638	      4.52851590	    -19.15934272
      3.09000000	      7.41666627	      1.66950332	     29.53797889	     -0.08988960	      0.90324840	     -0.64847412	     20.46522308	      4.99347116	    -22.80461859	    -14.56796600	      1.64251415	     -3.34506780	    -19.62551389	     -8.02200439	    -12.77603262	    -24.85370378	     25.80660718	     -1.10604826	    -14.79939630	      5.00970185	    -19.19987407
      3.10000000	      7.59175584	      1.17559622	     29.24801920	     -0.07726422	      0.90286222	     -0.65199161	     20.35101442	      5.71326348	    -22.66212514	    -15.51083216	      0.95477836	     -4.66900395	    -19.62794335	     -8.74630415	    -12.35099633	    -26.33712084	     24.11339068	     -0.19337689	    -14.39524337	      5.44635668	    -19.17897565
      3.11000000	      7.75157844	      0.71559875	     28.92814931	     -0.06452232	      0.90279453	     -0.65532960	     20.21236818	      6.41386554	    -22.44586928	    -16.49027674	      0.33645459	     -5.97324247	    -19.48906829	     -9.43516594	    -11.79162274	    -28.02586083	     22.08555656	      0.75603535	    -13.99250028	      5.82350147	    -19.14721374
      3.12000000	      7.89634909	      0.30335860	     28.57553488	     -0.05172893	      0.90304996	     -0.65850409	     20.03872234	      7.08188027	    -22.15180186	    -17.47816852	     -0.11166492	     -7.20570747	    -19.20748759	    -10.06213758	    -11.06408212	    -29.90401313	     19.72002860	      1.71156409	    -13.60401637	      6.13277766	    -19.09101339
      3.13000000	      8.02791954	     -0.05011005	     28.19591058	     -0.03897736	      0.90361104	     -0.66151808	     19.81714746	      7.70731990	    -21.77973413	    -18.44355668	     -0.35276383	     -8.30920377	    -18.76903757	    -10.61186915	    -10.15654308	    -31.97746621	     17.04539470	      2.61415284	    -13.25036983	      6.36779613	    -19.01501133
      3.14000000	      8.14610450	     -0.33830329	     27.79812129	     -0.02635615	      0.90444651	     -0.66438882	     19.54002233	      8.28104190	    -21.33251469	    -19.36346230	     -0.37081028	     -9.23097593	    -18.16151430	    -11.06897630	     -9.06014523	    -34.23905592	     14.12449712	      3.38638116	    -12.94323338	      6.52819952	    -18.92748849
